<?xml version="1.0" encoding="utf-8" standalone="no"?>
<!DOCTYPE svg PUBLIC "-//W3C//DTD SVG 1.1//EN"
  "http://www.w3.org/Graphics/SVG/1.1/DTD/svg11.dtd">
<svg xmlns:xlink="http://www.w3.org/1999/xlink" width="875.52pt" height="256.32pt" viewBox="0 0 875.52 256.32" xmlns="http://www.w3.org/2000/svg" version="1.1">
 <metadata>
  <rdf:RDF xmlns:dc="http://purl.org/dc/elements/1.1/" xmlns:cc="http://creativecommons.org/ns#" xmlns:rdf="http://www.w3.org/1999/02/22-rdf-syntax-ns#">
   <cc:Work>
    <dc:type rdf:resource="http://purl.org/dc/dcmitype/StillImage"/>
    <dc:date>2026-07-12T13:43:04.356210</dc:date>
    <dc:format>image/svg+xml</dc:format>
    <dc:creator>
     <cc:Agent>
      <dc:title>Matplotlib v3.10.8, https://matplotlib.org/</dc:title>
     </cc:Agent>
    </dc:creator>
   </cc:Work>
  </rdf:RDF>
 </metadata>
 <defs>
  <style type="text/css">*{stroke-linejoin: round; stroke-linecap: butt}</style>
 </defs>
 <g id="figure_1">
  <g id="patch_1">
   <path d="M 0 256.32 
L 875.52 256.32 
L 875.52 0 
L 0 0 
z
" style="fill: #0f1114"/>
  </g>
  <g id="axes_1">
   <g id="patch_2">
    <path d="M 66.96 178.92 
L 66.96 65.52 
L 84.6 83.16 
L 84.6 156.24 
z
" clip-path="url(#p6960476c8f)" style="fill: #ffffff"/>
   </g>
   <g id="patch_3">
    <path d="M 89.64 178.92 
L 145.08 178.92 
L 162.72 161.28 
L 107.28 161.28 
z
" clip-path="url(#p6960476c8f)" style="fill: #d7d2cc"/>
   </g>
   <g id="text_1">
    <!-- Loriz Digital -->
    <g style="fill: #ffffff" transform="translate(232.56 108.071797) scale(0.47 -0.47)">
     <defs>
      <path id="Inter-Light-4c" d="M 616 0 
L 3275 0 
L 3275 397 
L 1063 397 
L 1063 4656 
L 616 4656 
L 616 0 
z
" transform="scale(0.015625)"/>
      <path id="Inter-Light-6f" d="M 1897 -75 
C 2806 -75 3441 666 3441 1728 
C 3441 2800 2803 3541 1897 3541 
C 988 3541 353 2800 353 1728 
C 353 666 988 -75 1897 -75 
z
M 1897 309 
C 1184 309 781 953 781 1728 
C 781 2506 1184 3156 1897 3156 
C 2613 3156 3016 2506 3016 1728 
C 3016 953 2613 309 1897 309 
z
" transform="scale(0.015625)"/>
      <path id="Inter-Light-72" d="M 534 0 
L 959 0 
L 959 2241 
C 959 2756 1353 3131 1894 3131 
C 2006 3131 2113 3116 2144 3109 
L 2144 3534 
C 2088 3538 1997 3541 1928 3541 
C 1494 3541 1119 3306 978 2950 
L 947 2950 
L 947 3494 
L 534 3494 
L 534 0 
z
" transform="scale(0.015625)"/>
      <path id="Inter-Light-69" d="M 534 0 
L 959 0 
L 959 3494 
L 534 3494 
L 534 0 
z
M 747 4141 
C 919 4141 1059 4272 1059 4438 
C 1059 4603 919 4734 747 4734 
C 578 4734 438 4603 438 4438 
C 438 4272 578 4141 747 4141 
z
" transform="scale(0.015625)"/>
      <path id="Inter-Light-7a" d="M 428 0 
L 3047 0 
L 3047 397 
L 1009 397 
L 1009 425 
L 2972 3147 
L 2972 3494 
L 513 3494 
L 513 3097 
L 2431 3097 
L 2431 3069 
L 428 328 
L 428 0 
z
" transform="scale(0.015625)"/>
      <path id="Inter-Light-20" transform="scale(0.015625)"/>
      <path id="Inter-Light-44" d="M 1991 0 
C 3394 0 4194 875 4194 2341 
C 4194 3784 3406 4656 2072 4656 
L 616 4656 
L 616 0 
L 1991 0 
z
M 1059 397 
L 1059 4259 
L 2044 4259 
C 3166 4259 3763 3538 3763 2341 
C 3763 1125 3153 397 1966 397 
L 1059 397 
z
" transform="scale(0.015625)"/>
      <path id="Inter-Light-67" d="M 1872 -1381 
C 2709 -1381 3322 -975 3322 -84 
L 3322 3494 
L 2909 3494 
L 2909 2822 
L 2866 2822 
C 2725 3141 2431 3541 1794 3541 
C 938 3541 353 2819 353 1753 
C 353 681 953 38 1784 38 
C 2406 38 2716 391 2856 719 
L 2897 719 
L 2897 -66 
C 2897 -709 2488 -1006 1872 -1006 
C 1288 -1006 1003 -731 853 -459 
L 503 -672 
C 706 -1084 1159 -1381 1872 -1381 
z
M 1847 419 
C 1166 419 781 969 781 1763 
C 781 2541 1156 3156 1847 3156 
C 2525 3156 2903 2572 2903 1763 
C 2903 928 2513 419 1847 419 
z
" transform="scale(0.015625)"/>
      <path id="Inter-Light-74" d="M 1716 3494 
L 997 3494 
L 997 4325 
L 572 4325 
L 572 3494 
L 53 3494 
L 53 3125 
L 572 3125 
L 572 797 
C 572 253 906 -72 1463 -34 
C 1572 -31 1691 -13 1781 16 
L 1694 381 
C 1619 366 1525 350 1466 347 
C 1147 316 997 478 997 825 
L 997 3125 
L 1716 3125 
L 1716 3494 
z
" transform="scale(0.015625)"/>
      <path id="Inter-Light-61" d="M 1453 -78 
C 2022 -78 2381 231 2534 553 
L 2566 553 
L 2566 0 
L 2981 0 
L 2981 2372 
C 2981 3297 2278 3541 1731 3541 
C 1188 3541 638 3319 403 2753 
L 809 2616 
C 931 2906 1241 3163 1741 3163 
C 2263 3163 2559 2878 2559 2409 
L 2559 2328 
C 2559 2063 2225 2056 1647 1988 
C 859 1891 303 1669 303 978 
C 303 300 819 -78 1453 -78 
z
M 1516 300 
C 1063 300 728 541 728 959 
C 728 1372 1066 1553 1650 1625 
C 1928 1659 2438 1722 2559 1838 
L 2559 1341 
C 2559 772 2150 300 1516 300 
z
" transform="scale(0.015625)"/>
      <path id="Inter-Light-6c" d="M 959 4656 
L 534 4656 
L 534 0 
L 959 0 
L 959 4656 
z
" transform="scale(0.015625)"/>
     </defs>
     <use xlink:href="#Inter-Light-4c"/>
     <use xlink:href="#Inter-Light-6f" transform="translate(56.445312 0)"/>
     <use xlink:href="#Inter-Light-72" transform="translate(115.722656 0)"/>
     <use xlink:href="#Inter-Light-69" transform="translate(151.660156 0)"/>
     <use xlink:href="#Inter-Light-7a" transform="translate(175 0)"/>
     <use xlink:href="#Inter-Light-20" transform="translate(229.248047 0)"/>
     <use xlink:href="#Inter-Light-44" transform="translate(257.373047 0)"/>
     <use xlink:href="#Inter-Light-69" transform="translate(329.296875 0)"/>
     <use xlink:href="#Inter-Light-67" transform="translate(352.636719 0)"/>
     <use xlink:href="#Inter-Light-69" transform="translate(412.890625 0)"/>
     <use xlink:href="#Inter-Light-74" transform="translate(436.230469 0)"/>
     <use xlink:href="#Inter-Light-61" transform="translate(466.064453 0)"/>
     <use xlink:href="#Inter-Light-6c" transform="translate(520.996094 0)"/>
    </g>
   </g>
   <g id="text_2">
    <!-- Digitale Lösungen für Ihr Unternehmen -->
    <g style="fill: #d8d8d8" transform="translate(236.16 165.196484) scale(0.17 -0.17)">
     <defs>
      <path id="Inter-Light-65" d="M 1950 -75 
C 2653 -75 3128 306 3288 747 
L 2884 875 
C 2756 569 2444 306 1953 306 
C 1247 306 800 825 781 1619 
L 3372 1619 
L 3372 1803 
C 3372 2991 2650 3541 1884 3541 
C 972 3541 353 2781 353 1725 
C 353 666 972 -75 1950 -75 
z
M 781 1984 
C 819 2628 1253 3159 1884 3159 
C 2509 3159 2900 2663 2944 1984 
L 781 1984 
z
" transform="scale(0.015625)"/>
      <path id="Inter-Light-f6" d="M 1897 -75 
C 2806 -75 3441 666 3441 1728 
C 3441 2800 2803 3541 1897 3541 
C 988 3541 353 2800 353 1728 
C 353 666 988 -75 1897 -75 
z
M 1897 309 
C 1184 309 781 953 781 1728 
C 781 2506 1184 3156 1897 3156 
C 2613 3156 3016 2506 3016 1728 
C 3016 953 2613 309 1897 309 
z
M 1247 4141 
C 1409 4141 1544 4275 1544 4438 
C 1544 4600 1409 4731 1247 4731 
C 1084 4731 950 4600 950 4438 
C 950 4275 1084 4141 1247 4141 
z
M 2547 4141 
C 2709 4141 2841 4275 2841 4438 
C 2841 4600 2709 4731 2547 4731 
C 2381 4731 2250 4600 2250 4438 
C 2250 4275 2381 4141 2547 4141 
z
" transform="scale(0.015625)"/>
      <path id="Inter-Light-73" d="M 1647 -75 
C 2419 -75 2953 353 2953 950 
C 2953 1413 2663 1725 2069 1869 
L 1534 1997 
C 1103 2100 909 2284 909 2578 
C 909 2925 1244 3172 1706 3172 
C 2166 3172 2400 2934 2509 2616 
L 2897 2716 
C 2734 3219 2363 3541 1703 3541 
C 997 3541 481 3138 481 2553 
C 481 2081 778 1769 1378 1625 
L 1947 1488 
C 2325 1397 2516 1206 2516 925 
C 2516 572 2169 303 1641 303 
C 1178 303 872 506 772 928 
L 366 831 
C 491 244 959 -75 1647 -75 
z
" transform="scale(0.015625)"/>
      <path id="Inter-Light-75" d="M 1731 -47 
C 2200 -47 2606 153 2822 647 
L 2822 0 
L 3234 0 
L 3234 3494 
L 2809 3494 
L 2809 1316 
C 2809 716 2394 341 1844 341 
C 1306 341 959 694 959 1266 
L 959 3494 
L 534 3494 
L 534 1234 
C 534 406 1022 -47 1731 -47 
z
" transform="scale(0.015625)"/>
      <path id="Inter-Light-6e" d="M 959 2178 
C 959 2778 1372 3153 1925 3153 
C 2463 3153 2809 2800 2809 2228 
L 2809 0 
L 3231 0 
L 3231 2259 
C 3231 3088 2747 3541 2038 3541 
C 1559 3541 1159 3334 947 2850 
L 944 3494 
L 534 3494 
L 534 0 
L 959 0 
L 959 2178 
z
" transform="scale(0.015625)"/>
      <path id="Inter-Light-66" d="M 1984 3494 
L 1159 3494 
L 1159 3909 
C 1159 4272 1347 4475 1694 4475 
C 1834 4475 1925 4447 1991 4425 
L 2109 4791 
C 2025 4828 1872 4872 1650 4872 
C 1166 4872 738 4563 738 3994 
L 738 3494 
L 53 3494 
L 53 3125 
L 738 3125 
L 738 0 
L 1159 0 
L 1159 3125 
L 1984 3125 
L 1984 3494 
z
" transform="scale(0.015625)"/>
      <path id="Inter-Light-fc" d="M 1731 -47 
C 2200 -47 2606 153 2822 647 
L 2822 0 
L 3234 0 
L 3234 3494 
L 2809 3494 
L 2809 1316 
C 2809 716 2394 341 1844 341 
C 1306 341 959 694 959 1266 
L 959 3494 
L 534 3494 
L 534 1234 
C 534 406 1022 -47 1731 -47 
z
M 1234 4141 
C 1397 4141 1531 4275 1531 4438 
C 1531 4600 1397 4731 1234 4731 
C 1072 4731 938 4600 938 4438 
C 938 4275 1072 4141 1234 4141 
z
M 2534 4141 
C 2697 4141 2828 4275 2828 4438 
C 2828 4600 2697 4731 2534 4731 
C 2369 4731 2238 4600 2238 4438 
C 2238 4275 2369 4141 2534 4141 
z
" transform="scale(0.015625)"/>
      <path id="Inter-Light-49" d="M 1059 4656 
L 616 4656 
L 616 0 
L 1059 0 
L 1059 4656 
z
" transform="scale(0.015625)"/>
      <path id="Inter-Light-68" d="M 959 2178 
C 959 2778 1372 3153 1925 3153 
C 2463 3153 2809 2800 2809 2228 
L 2809 0 
L 3234 0 
L 3234 2259 
C 3234 3088 2747 3541 2038 3541 
C 1569 3541 1175 3344 959 2878 
L 959 4656 
L 534 4656 
L 534 0 
L 959 0 
L 959 2178 
z
" transform="scale(0.015625)"/>
      <path id="Inter-Light-55" d="M 2356 -72 
C 3406 -72 4125 625 4125 1581 
L 4125 4656 
L 3681 4656 
L 3681 1613 
C 3681 878 3156 341 2356 341 
C 1556 341 1028 878 1028 1613 
L 1028 4656 
L 584 4656 
L 584 1581 
C 584 628 1303 -72 2356 -72 
z
" transform="scale(0.015625)"/>
      <path id="Inter-Light-6d" d="M 534 0 
L 959 0 
L 959 2247 
C 959 2825 1356 3163 1825 3163 
C 2269 3163 2581 2863 2581 2378 
L 2581 0 
L 3003 0 
L 3003 2303 
C 3003 2822 3347 3163 3850 3163 
C 4288 3163 4628 2903 4628 2341 
L 4628 0 
L 5050 0 
L 5050 2353 
C 5050 3138 4584 3553 3963 3553 
C 3456 3553 3031 3275 2866 2813 
C 2744 3266 2413 3553 1947 3553 
C 1531 3553 1125 3328 950 2847 
L 947 3494 
L 534 3494 
L 534 0 
z
" transform="scale(0.015625)"/>
     </defs>
     <use xlink:href="#Inter-Light-44"/>
     <use xlink:href="#Inter-Light-69" transform="translate(71.923828 0)"/>
     <use xlink:href="#Inter-Light-67" transform="translate(95.263672 0)"/>
     <use xlink:href="#Inter-Light-69" transform="translate(155.517578 0)"/>
     <use xlink:href="#Inter-Light-74" transform="translate(178.857422 0)"/>
     <use xlink:href="#Inter-Light-61" transform="translate(208.691406 0)"/>
     <use xlink:href="#Inter-Light-6c" transform="translate(263.623047 0)"/>
     <use xlink:href="#Inter-Light-65" transform="translate(286.962891 0)"/>
     <use xlink:href="#Inter-Light-20" transform="translate(344.921875 0)"/>
     <use xlink:href="#Inter-Light-4c" transform="translate(373.046875 0)"/>
     <use xlink:href="#Inter-Light-f6" transform="translate(429.492188 0)"/>
     <use xlink:href="#Inter-Light-73" transform="translate(488.769531 0)"/>
     <use xlink:href="#Inter-Light-75" transform="translate(540.380859 0)"/>
     <use xlink:href="#Inter-Light-6e" transform="translate(599.267578 0)"/>
     <use xlink:href="#Inter-Light-67" transform="translate(658.105469 0)"/>
     <use xlink:href="#Inter-Light-65" transform="translate(718.359375 0)"/>
     <use xlink:href="#Inter-Light-6e" transform="translate(776.318359 0)"/>
     <use xlink:href="#Inter-Light-20" transform="translate(835.15625 0)"/>
     <use xlink:href="#Inter-Light-66" transform="translate(863.28125 0)"/>
     <use xlink:href="#Inter-Light-fc" transform="translate(897.753906 0)"/>
     <use xlink:href="#Inter-Light-72" transform="translate(956.640625 0)"/>
     <use xlink:href="#Inter-Light-20" transform="translate(992.578125 0)"/>
     <use xlink:href="#Inter-Light-49" transform="translate(1020.703125 0)"/>
     <use xlink:href="#Inter-Light-68" transform="translate(1046.923828 0)"/>
     <use xlink:href="#Inter-Light-72" transform="translate(1105.810547 0)"/>
     <use xlink:href="#Inter-Light-20" transform="translate(1141.748047 0)"/>
     <use xlink:href="#Inter-Light-55" transform="translate(1169.873047 0)"/>
     <use xlink:href="#Inter-Light-6e" transform="translate(1243.457031 0)"/>
     <use xlink:href="#Inter-Light-74" transform="translate(1302.294922 0)"/>
     <use xlink:href="#Inter-Light-65" transform="translate(1332.128906 0)"/>
     <use xlink:href="#Inter-Light-72" transform="translate(1390.087891 0)"/>
     <use xlink:href="#Inter-Light-6e" transform="translate(1426.025391 0)"/>
     <use xlink:href="#Inter-Light-65" transform="translate(1484.863281 0)"/>
     <use xlink:href="#Inter-Light-68" transform="translate(1542.822266 0)"/>
     <use xlink:href="#Inter-Light-6d" transform="translate(1601.708984 0)"/>
     <use xlink:href="#Inter-Light-65" transform="translate(1688.964844 0)"/>
     <use xlink:href="#Inter-Light-6e" transform="translate(1746.923828 0)"/>
    </g>
   </g>
  </g>
 </g>
 <defs>
  <clipPath id="p6960476c8f">
   <rect x="5.76" y="5.76" width="864" height="244.8"/>
  </clipPath>
 </defs>
</svg>
